<?xml version="1.0" encoding="UTF-8"?>
<svg width="582px" height="800px" viewBox="0 0 582 800" version="1.1" xmlns="http://www.w3.org/2000/svg" xmlns:xlink="http://www.w3.org/1999/xlink">
    <title>Shape</title>
    <g id="Page-1" stroke="none" stroke-width="1" fill="none" fill-rule="evenodd">
        <g id="Capa_1" transform="translate(-109, 0)" fill="#6236FF">
            <path d="M109.55102,0 L109.55102,800 L690.44898,800 L690.44898,0 L109.55102,0 Z M242.938776,661.55102 L191.510204,661.55102 C184.489796,661.55102 178.77551,655.836735 178.77551,648.816327 C178.77551,641.795918 184.489796,636.081633 191.510204,636.081633 L242.938776,636.081633 C249.959184,636.081633 255.673469,641.795918 255.673469,648.816327 C255.510204,655.836735 249.795918,661.55102 242.938776,661.55102 Z M242.938776,552.326531 L191.510204,552.326531 C184.489796,552.326531 178.77551,546.612245 178.77551,539.591837 C178.77551,532.571429 184.489796,526.857143 191.510204,526.857143 L242.938776,526.857143 C249.959184,526.857143 255.673469,532.571429 255.673469,539.591837 C255.510204,546.612245 249.795918,552.326531 242.938776,552.326531 Z M242.938776,443.102041 L191.510204,443.102041 C184.489796,443.102041 178.77551,437.387755 178.77551,430.367347 C178.77551,423.346939 184.489796,417.632653 191.510204,417.632653 L242.938776,417.632653 C249.959184,417.632653 255.673469,423.346939 255.673469,430.367347 C255.510204,437.387755 249.795918,443.102041 242.938776,443.102041 Z M242.938776,334.693878 L191.510204,334.693878 C184.489796,334.693878 178.77551,328.979592 178.77551,321.959184 C178.77551,314.938776 184.489796,309.22449 191.510204,309.22449 L242.938776,309.22449 C249.959184,309.22449 255.673469,314.938776 255.673469,321.959184 C255.510204,328.326531 249.795918,334.693878 242.938776,334.693878 Z M242.938776,225.469388 L191.510204,225.469388 C184.489796,225.469388 178.77551,219.755102 178.77551,212.734694 C178.77551,205.714286 184.489796,200 191.510204,200 L242.938776,200 C249.959184,200 255.673469,205.714286 255.673469,212.734694 C255.673469,219.755102 249.795918,225.469388 242.938776,225.469388 Z M504.979592,661.55102 L294.367347,661.55102 C287.346939,661.55102 281.632653,655.836735 281.632653,648.816327 C281.632653,641.795918 287.346939,636.081633 294.367347,636.081633 L505.142857,636.081633 C512.163265,636.081633 517.877551,641.795918 517.877551,648.816327 C517.714286,655.836735 512,661.55102 504.979592,661.55102 Z M504.979592,552.326531 L294.367347,552.326531 C287.346939,552.326531 281.632653,546.612245 281.632653,539.591837 C281.632653,532.571429 287.346939,526.857143 294.367347,526.857143 L505.142857,526.857143 C512.163265,526.857143 517.877551,532.571429 517.877551,539.591837 C517.714286,546.612245 512,552.326531 504.979592,552.326531 Z M504.979592,443.102041 L294.367347,443.102041 C287.346939,443.102041 281.632653,437.387755 281.632653,430.367347 C281.632653,423.346939 287.346939,417.632653 294.367347,417.632653 L505.142857,417.632653 C512.163265,417.632653 517.877551,423.346939 517.877551,430.367347 C517.714286,437.387755 512,443.102041 504.979592,443.102041 Z M504.979592,334.693878 L294.367347,334.693878 C287.346939,334.693878 281.632653,328.979592 281.632653,321.959184 C281.632653,314.938776 287.346939,309.22449 294.367347,309.22449 L505.142857,309.22449 C512.163265,309.22449 517.877551,314.938776 517.877551,321.959184 C517.714286,328.326531 512,334.693878 504.979592,334.693878 Z M504.979592,225.469388 L294.367347,225.469388 C287.346939,225.469388 281.632653,219.755102 281.632653,212.734694 C281.632653,205.714286 287.346939,200 294.367347,200 L505.142857,200 C512.163265,200 517.877551,205.714286 517.877551,212.734694 C517.714286,219.755102 512,225.469388 504.979592,225.469388 Z M608.489796,661.55102 L557.061224,661.55102 C550.040816,661.55102 544.326531,655.836735 544.326531,648.816327 C544.326531,641.795918 550.040816,636.081633 557.061224,636.081633 L608.489796,636.081633 C615.510204,636.081633 621.22449,641.795918 621.22449,648.816327 C621.22449,655.836735 615.510204,661.55102 608.489796,661.55102 Z M608.489796,552.326531 L557.061224,552.326531 C550.040816,552.326531 544.326531,546.612245 544.326531,539.591837 C544.326531,532.571429 550.040816,526.857143 557.061224,526.857143 L608.489796,526.857143 C615.510204,526.857143 621.22449,532.571429 621.22449,539.591837 C621.22449,546.612245 615.510204,552.326531 608.489796,552.326531 Z M608.489796,443.102041 L557.061224,443.102041 C550.040816,443.102041 544.326531,437.387755 544.326531,430.367347 C544.326531,423.346939 550.040816,417.632653 557.061224,417.632653 L608.489796,417.632653 C615.510204,417.632653 621.22449,423.346939 621.22449,430.367347 C621.22449,437.387755 615.510204,443.102041 608.489796,443.102041 Z M608.489796,334.693878 L557.061224,334.693878 C550.040816,334.693878 544.326531,328.979592 544.326531,321.959184 C544.326531,314.938776 550.040816,309.22449 557.061224,309.22449 L608.489796,309.22449 C615.510204,309.22449 621.22449,314.938776 621.22449,321.959184 C621.22449,328.326531 615.510204,334.693878 608.489796,334.693878 Z M608.489796,225.469388 L557.061224,225.469388 C550.040816,225.469388 544.326531,219.755102 544.326531,212.734694 C544.326531,205.714286 550.040816,200 557.061224,200 L608.489796,200 C615.510204,200 621.22449,205.714286 621.22449,212.734694 C621.22449,219.755102 615.510204,225.469388 608.489796,225.469388 Z" id="Shape" fill-rule="nonzero"></path>
        </g>
    </g>
</svg>