<?xml version="1.0" encoding="iso-8859-1"?>
<!-- Uploaded to: SVG Repo, www.svgrepo.com, Generator: SVG Repo Mixer Tools -->
<svg fill="#000000" height="800px" width="800px" version="1.1" id="Capa_1" xmlns="http://www.w3.org/2000/svg" xmlns:xlink="http://www.w3.org/1999/xlink" 
	 viewBox="0 0 490 490" xml:space="preserve">
<g>
	<path d="M67.1,0v490h355.8V0H67.1z M148.8,405.2h-31.5c-4.3,0-7.8-3.5-7.8-7.8s3.5-7.8,7.8-7.8h31.5c4.3,0,7.8,3.5,7.8,7.8
		C156.5,401.7,153,405.2,148.8,405.2z M148.8,338.3h-31.5c-4.3,0-7.8-3.5-7.8-7.8s3.5-7.8,7.8-7.8h31.5c4.3,0,7.8,3.5,7.8,7.8
		C156.5,334.8,153,338.3,148.8,338.3z M148.8,271.4h-31.5c-4.3,0-7.8-3.5-7.8-7.8s3.5-7.8,7.8-7.8h31.5c4.3,0,7.8,3.5,7.8,7.8
		C156.5,267.9,153,271.4,148.8,271.4z M148.8,205h-31.5c-4.3,0-7.8-3.5-7.8-7.8s3.5-7.8,7.8-7.8h31.5c4.3,0,7.8,3.5,7.8,7.8
		C156.5,201.1,153,205,148.8,205z M148.8,138.1h-31.5c-4.3,0-7.8-3.5-7.8-7.8s3.5-7.8,7.8-7.8h31.5c4.3,0,7.8,3.5,7.8,7.8
		S153,138.1,148.8,138.1z M309.3,405.2h-129c-4.3,0-7.8-3.5-7.8-7.8s3.5-7.8,7.8-7.8h129.1c4.3,0,7.8,3.5,7.8,7.8
		C317.1,401.7,313.6,405.2,309.3,405.2z M309.3,338.3h-129c-4.3,0-7.8-3.5-7.8-7.8s3.5-7.8,7.8-7.8h129.1c4.3,0,7.8,3.5,7.8,7.8
		C317.1,334.8,313.6,338.3,309.3,338.3z M309.3,271.4h-129c-4.3,0-7.8-3.5-7.8-7.8s3.5-7.8,7.8-7.8h129.1c4.3,0,7.8,3.5,7.8,7.8
		C317.1,267.9,313.6,271.4,309.3,271.4z M309.3,205h-129c-4.3,0-7.8-3.5-7.8-7.8s3.5-7.8,7.8-7.8h129.1c4.3,0,7.8,3.5,7.8,7.8
		C317.1,201.1,313.6,205,309.3,205z M309.3,138.1h-129c-4.3,0-7.8-3.5-7.8-7.8s3.5-7.8,7.8-7.8h129.1c4.3,0,7.8,3.5,7.8,7.8
		C317.1,134.6,313.6,138.1,309.3,138.1z M372.7,405.2h-31.5c-4.3,0-7.8-3.5-7.8-7.8s3.5-7.8,7.8-7.8h31.5c4.3,0,7.8,3.5,7.8,7.8
		S377,405.2,372.7,405.2z M372.7,338.3h-31.5c-4.3,0-7.8-3.5-7.8-7.8s3.5-7.8,7.8-7.8h31.5c4.3,0,7.8,3.5,7.8,7.8
		S377,338.3,372.7,338.3z M372.7,271.4h-31.5c-4.3,0-7.8-3.5-7.8-7.8s3.5-7.8,7.8-7.8h31.5c4.3,0,7.8,3.5,7.8,7.8
		S377,271.4,372.7,271.4z M372.7,205h-31.5c-4.3,0-7.8-3.5-7.8-7.8s3.5-7.8,7.8-7.8h31.5c4.3,0,7.8,3.5,7.8,7.8
		C380.5,201.1,377,205,372.7,205z M372.7,138.1h-31.5c-4.3,0-7.8-3.5-7.8-7.8s3.5-7.8,7.8-7.8h31.5c4.3,0,7.8,3.5,7.8,7.8
		S377,138.1,372.7,138.1z"/>
</g>
</svg>