<?xml version="1.0" encoding="UTF-8"?>
<svg width="800px" height="800px" viewBox="0 0 800 800" version="1.1" xmlns="http://www.w3.org/2000/svg" xmlns:xlink="http://www.w3.org/1999/xlink">
    <title>desktop</title>
    <g id="desktop" stroke="none" fill="none" stroke-linecap="round" stroke-width="66.6666667">
        <path d="M533.333333,700 L646.666667,700 C665.336667,700 674.67,700 681.8,696.366667 C688.073333,693.17 693.17,688.073333 696.366667,681.8 C700,674.67 700,665.336667 700,646.666667 L700,153.333333 C700,134.665 700,125.330667 696.366667,118.200333 C693.17,111.928333 688.073333,106.829 681.8,103.633 C674.67,100 665.336667,100 646.666667,100 L453.333333,100 C434.663333,100 425.33,100 418.2,103.633 C411.926667,106.829 406.83,111.928333 403.633333,118.200333 C400,125.330667 400,134.665 400,153.333333 L400,200 M333.333333,600 L333.333333,700 M233.333333,700 L433.333333,700 M206.666667,600 L460,600 C497.336667,600 516.006667,600 530.266667,592.733333 C542.81,586.343333 553.01,576.143333 559.4,563.6 C566.666667,549.34 566.666667,530.67 566.666667,493.333333 L566.666667,306.666667 C566.666667,269.33 566.666667,250.661333 559.4,236.400667 C553.01,223.856333 542.81,213.657667 530.266667,207.266333 C516.006667,200 497.336667,200 460,200 L206.666667,200 C169.33,200 150.661333,200 136.400667,207.266333 C123.856333,213.657667 113.657667,223.856333 107.266333,236.400667 C100,250.661333 100,269.329667 100,306.666667 L100,493.333333 C100,530.67 100,549.34 107.266333,563.6 C113.657667,576.143333 123.856333,586.343333 136.400667,592.733333 C150.661333,600 169.329667,600 206.666667,600 Z" id="Shape" stroke="#6236FF"></path>
    </g>
</svg>