<?xml version="1.0" encoding="UTF-8"?>
<svg width="800px" height="800px" viewBox="0 0 800 800" version="1.1" xmlns="http://www.w3.org/2000/svg" xmlns:xlink="http://www.w3.org/1999/xlink">
    <title>network</title>
    <g id="network" stroke="none" fill="none" stroke-linecap="round" stroke-linejoin="round" stroke-width="66.6666667">
        <path d="M100,400 L700,400 M400,266.666667 L400,400 M216.666667,400 L216.666667,533.333333 M583.333333,400 L583.333333,533.333333 M336.666667,266.666667 L463.333333,266.666667 C482.003333,266.666667 491.336667,266.666667 498.466667,263.033667 C504.74,259.837667 509.836667,254.738333 513.033333,248.466333 C516.666667,241.336 516.666667,232.001667 516.666667,213.333333 L516.666667,153.333333 C516.666667,134.665 516.666667,125.330667 513.033333,118.200333 C509.836667,111.928333 504.74,106.829 498.466667,103.633 C491.336667,100 482.003333,100 463.333333,100 L336.666667,100 C317.998333,100 308.664,100 301.533667,103.633 C295.261667,106.829 290.162333,111.928333 286.966333,118.200333 C283.333333,125.330667 283.333333,134.665 283.333333,153.333333 L283.333333,213.333333 C283.333333,232.001667 283.333333,241.336 286.966333,248.466333 C290.162333,254.738333 295.261667,259.837667 301.533667,263.033667 C308.664,266.666667 317.998333,266.666667 336.666667,266.666667 Z M520,700 L646.666667,700 C665.336667,700 674.67,700 681.8,696.366667 C688.073333,693.17 693.17,688.073333 696.366667,681.8 C700,674.67 700,665.336667 700,646.666667 L700,586.666667 C700,567.996667 700,558.663333 696.366667,551.533333 C693.17,545.26 688.073333,540.163333 681.8,536.966667 C674.67,533.333333 665.336667,533.333333 646.666667,533.333333 L520,533.333333 C501.33,533.333333 491.996667,533.333333 484.866667,536.966667 C478.593333,540.163333 473.496667,545.26 470.3,551.533333 C466.666667,558.663333 466.666667,567.996667 466.666667,586.666667 L466.666667,646.666667 C466.666667,665.336667 466.666667,674.67 470.3,681.8 C473.496667,688.073333 478.593333,693.17 484.866667,696.366667 C491.996667,700 501.33,700 520,700 Z M153.333333,700 L280,700 C298.668333,700 308.002667,700 315.133,696.366667 C321.405,693.17 326.504333,688.073333 329.700333,681.8 C333.333333,674.67 333.333333,665.336667 333.333333,646.666667 L333.333333,586.666667 C333.333333,567.996667 333.333333,558.663333 329.700333,551.533333 C326.504333,545.26 321.405,540.163333 315.133,536.966667 C308.002667,533.333333 298.668333,533.333333 280,533.333333 L153.333333,533.333333 C134.665,533.333333 125.330667,533.333333 118.200333,536.966667 C111.928333,540.163333 106.829,545.26 103.633,551.533333 C100,558.663333 100,567.996667 100,586.666667 L100,646.666667 C100,665.336667 100,674.67 103.633,681.8 C106.829,688.073333 111.928333,693.17 118.200333,696.366667 C125.330667,700 134.665,700 153.333333,700 Z" id="Shape" stroke="#6236FF"></path>
    </g>
</svg>